<?xml version="1.0" standalone="no"?>
<!DOCTYPE svg PUBLIC "-//W3C//DTD SVG 20010904//EN"
 "http://www.w3.org/TR/2001/REC-SVG-20010904/DTD/svg10.dtd">
<svg version="1.0" xmlns="http://www.w3.org/2000/svg"
 width="1024.000000pt" height="1024.000000pt" viewBox="0 0 1024.000000 1024.000000"
 preserveAspectRatio="xMidYMid meet">
<metadata>
Created by potrace 1.11, written by Peter Selinger 2001-2013
</metadata>
<g transform="translate(0.000000,1024.000000) scale(0.100000,-0.100000)"
fill="#000000" stroke="none">
<path d="M2129 10236 c-3 -3 -27 -8 -54 -11 -28 -4 -58 -11 -67 -16 -10 -6
-18 -8 -18 -5 0 9 -109 -32 -185 -70 -41 -20 -75 -41 -75 -46 0 -4 -6 -8 -13
-8 -19 0 -63 -36 -152 -125 -81 -81 -119 -125 -110 -125 3 0 -3 -10 -15 -22
-11 -12 -20 -27 -20 -34 0 -7 -3 -14 -7 -16 -11 -4 -67 -120 -78 -160 -2 -5
-4 -10 -5 -13 -1 -3 -4 -9 -5 -15 -1 -5 -4 -12 -5 -15 -4 -7 -6 -16 -15 -60
-4 -22 -10 -49 -14 -60 -3 -11 -7 -2139 -8 -4729 l-3 -4708 25 16 c35 23 82
51 140 81 28 15 57 33 65 39 8 6 35 22 60 35 25 13 52 30 60 37 8 7 22 14 30
16 8 2 17 6 20 9 6 8 222 134 288 169 26 13 49 27 52 30 3 4 25 17 50 31 25
13 47 26 50 29 3 3 14 10 25 16 76 41 123 69 145 84 14 9 32 20 40 24 8 3 32
16 52 29 65 38 193 112 203 116 6 2 12 7 15 10 3 3 25 17 50 30 25 13 52 30
61 38 9 7 19 10 22 6 4 -3 7 -2 7 4 0 6 8 13 18 17 9 3 35 17 57 31 22 14 77
46 123 72 46 27 100 58 120 70 20 12 48 28 62 36 160 92 228 132 241 143 9 8
19 11 22 7 4 -3 7 -1 7 5 0 6 9 14 20 17 11 4 48 24 83 46 34 21 69 42 77 46
8 4 59 33 113 65 54 32 103 58 108 58 5 0 9 5 9 10 0 6 4 10 9 10 6 0 66 34
136 75 69 41 127 75 130 75 2 0 40 23 85 50 45 28 83 50 86 50 2 0 23 12 47
27 23 15 45 26 50 25 4 -1 7 2 7 7 0 5 10 13 23 17 12 4 37 18 55 32 17 13 32
22 32 18 0 -3 28 12 62 34 33 22 67 40 74 40 7 0 14 4 16 9 3 8 141 91 236
141 26 13 49 27 52 30 3 4 53 34 112 68 l107 61 36 -19 c20 -10 41 -23 48 -28
7 -5 32 -21 57 -34 25 -14 83 -48 130 -75 47 -27 168 -98 270 -158 102 -59
194 -113 205 -120 11 -7 25 -13 30 -15 6 -1 29 -15 52 -31 23 -16 44 -29 47
-29 2 0 41 -22 86 -50 45 -27 83 -50 85 -50 2 0 61 -34 131 -76 71 -42 145
-85 164 -96 19 -11 51 -29 71 -41 20 -12 61 -36 90 -53 30 -17 110 -64 179
-104 69 -40 139 -81 157 -91 43 -24 104 -61 128 -77 11 -7 34 -19 50 -28 17
-8 39 -21 50 -27 11 -7 43 -25 70 -41 28 -16 58 -36 68 -44 9 -8 17 -12 17 -8
0 4 20 -7 44 -24 25 -16 49 -30 55 -30 6 0 11 -4 11 -8 0 -4 12 -13 28 -20 15
-6 45 -23 67 -36 22 -14 63 -37 90 -52 28 -15 68 -39 90 -53 22 -15 51 -32 65
-39 14 -7 41 -22 60 -34 19 -11 44 -26 55 -32 11 -6 31 -18 45 -27 50 -32 120
-70 126 -68 4 0 10 -3 13 -8 6 -9 82 -58 91 -58 3 0 16 -8 30 -16 51 -33 183
-109 187 -109 3 0 17 -9 32 -19 14 -11 47 -30 71 -44 25 -13 113 -64 195 -112
83 -48 165 -96 183 -106 18 -11 44 -27 58 -35 l24 -16 -3 4713 c-2 2593 -6
4725 -10 4739 -27 105 -31 118 -45 153 -7 16 -12 32 -12 37 0 14 -67 136 -107
194 -139 200 -379 352 -623 394 -40 7 -6024 14 -6031 8z"/>
</g>
</svg>
